<?xml version="1.0" standalone="no"?><!DOCTYPE svg PUBLIC "-//W3C//DTD SVG 1.1//EN" "http://www.w3.org/Graphics/SVG/1.1/DTD/svg11.dtd"><svg t="1537102414600" class="icon" style="" viewBox="0 0 1024 1024" version="1.1" xmlns="http://www.w3.org/2000/svg" p-id="1824" xmlns:xlink="http://www.w3.org/1999/xlink" width="48" height="48"><defs><style type="text/css"></style></defs><path d="M1024 243.809524a243.809524 243.809524 0 1 0-487.619048 0v243.809524h243.809524a243.809524 243.809524 0 0 0 243.809524-243.809524z m-438.857143 0a192.853333 192.853333 0 0 1 195.047619-200.411429A200.655238 200.655238 0 0 1 980.601905 243.809524 192.853333 192.853333 0 0 1 780.190476 438.857143h-195.047619zM243.809524 0a243.809524 243.809524 0 0 0 0 487.619048h243.809524V243.809524A243.809524 243.809524 0 0 0 243.809524 0z m195.047619 438.857143h-195.047619a192.853333 192.853333 0 0 1-200.411429-195.047619A200.655238 200.655238 0 0 1 243.809524 43.398095 192.853333 192.853333 0 0 1 438.857143 243.809524zM0 780.190476a243.809524 243.809524 0 1 0 487.619048 0V536.380952H243.809524A243.809524 243.809524 0 0 0 0 780.190476z m438.857143 0a192.853333 192.853333 0 0 1-195.047619 200.411429A200.655238 200.655238 0 0 1 43.398095 780.190476 192.853333 192.853333 0 0 1 243.809524 585.142857h195.047619zM780.190476 536.380952H536.380952v243.809524a243.809524 243.809524 0 1 0 243.809524-243.809524z m0 444.220953A192.853333 192.853333 0 0 1 585.142857 780.190476v-195.047619h195.047619a192.853333 192.853333 0 0 1 200.411429 195.047619A200.655238 200.655238 0 0 1 780.190476 980.601905z" fill="#1F212B" p-id="1825"></path></svg>