<svg xmlns="http://www.w3.org/2000/svg" width="37px" height="34px" viewBox="0 0 37 34" version="1.1">
        <g id="Artboard" transform="translate(-256.000000, -139.000000)" fill="#333333" style="fill: rgb(102, 102, 102);">
            <g id="公司简介_pressed" transform="translate(253.000000, 133.000000)">
                <path d="M17.7396438,37 L17.7396438,35 L36,35 C37.1045695,35 38,34.1045695 38,33 L38,10 C38,8.8954305 37.1045695,8 36,8 L11,8 C9.8954305,8 9,8.8954305 9,10 L9,13.6469806 L7,13.6469806 L7,10 C7,7.790861 8.790861,6 11,6 L36,6 C38.209139,6 40,7.790861 40,10 L40,33 C40,35.209139 38.209139,37 36,37 L17.7396438,37 Z M17.7396438,37 L17.7396438,35 L36,35 C37.1045695,35 38,34.1045695 38,33 L38,10 C38,8.8954305 37.1045695,8 36,8 L11,8 C9.8954305,8 9,8.8954305 9,10 L9,13.6469806 L7,13.6469806 L7,10 C7,7.790861 8.790861,6 11,6 L36,6 C38.209139,6 40,7.790861 40,10 L40,33 C40,35.209139 38.209139,37 36,37 L17.7396438,37 Z" id="Rectangle-11" fill-rule="nonzero"></path>
                <circle id="Oval-4" cx="9" cy="21" r="6"></circle>
                <path d="M4,26 C5.08003508,27.2470355 6.74670175,27.9068364 9,27.9794027 C11.2532983,28.051969 12.9199649,27.3921681 14,26 L14,40 L9,35.3164381 L4,40 L4,26 Z" id="Rectangle-12"></path>
                <polygon id="Line" fill-rule="nonzero" points="17.5 18 34.632746 18 34.632746 16 17.5 16"></polygon>
                <polygon id="Line-Copy" fill-rule="nonzero" points="17.5 28 34.632746 28 34.632746 26 17.5 26"></polygon>
        </g>
    </g>
</svg>