<svg xmlns="http://www.w3.org/2000/svg" width="42px" height="38px" viewBox="0 0 42 38" version="1.1">
        <g id="Artboard" transform="translate(-137.000000, -102.000000)">
            <g id="首页-选中" transform="translate(137.000000, 102.000000)">
                <g id="Group">
                    <path d="M4.81996682,15.4007935 L15.8626286,7.33115602 L15.8626286,7.33115602 C16.5447651,6.83267168 17.4665593,6.81659384 18.1656646,7.29098671 L30.1230028,15.4048948 L30.1230028,15.4048948 C30.6715377,15.7771148 31,16.396945 31,17.0598463 L31,36 L31,36 C31,37.1045695 30.1045695,38 29,38 L6,38 L6,38 C4.8954305,38 4,37.1045695 4,36 L4,17.0155757 L4,17.0155757 C4,16.377312 4.30463839,15.7773796 4.81996682,15.4007935 Z" id="Rectangle-12" fill="#C1C1C1" style="fill: rgb(240, 179, 167);"></path>
                    <path d="M20.9063775,2.00833298 C20.9075546,2.00922705 20.9087403,2.01010188 20.9099341,2.01095749 L20.9063775,2.00833298 Z M34.1405803,2.99986016 C34.1393861,2.99986263 34.1381902,2.99984251 34.1369931,2.99980007 L34.1405803,2.99986016 Z M20.9985931,2.07637979 L2.49293978,16 L7.04662921,16 C7.60111651,16 8.04973878,16.4511582 8.04661333,17.0056366 C8.02954079,20.0344354 7.98856057,28.3046427 7.98514299,28.9109477 C7.98202995,29.4632237 7.5317982,29.9084082 6.97952223,29.9052952 C6.42724625,29.9021821 5.98206173,29.4519504 5.98517476,28.8996744 C5.98825973,28.3523761 6.02204795,21.5408107 6.04112237,18 L2,18 C1.21353549,18 0.511830334,17.5028081 0.25626543,16.7595414 C-0.0002576055,16.0127661 0.252340604,15.1876373 0.885178362,14.70681 L19.8794411,0.415558953 C20.5398491,-0.0858709955 21.4557891,-0.0858709955 22.1049818,0.407347371 L27,4.01933679 L27,2.74444444 C27,1.72930979 27.8273919,0.911111111 28.8594197,0.911250951 L34.1573034,1 C35.1726081,1 36,1.81819868 35.999999,2.83192057 C36.0016605,4.00797902 36.0029607,5.0570544 36.0038997,5.97915256 C36.0047981,6.86136806 36.0053658,7.62736989 36.0056029,8.27717347 C36.006023,9.42872912 36.0064111,10.1142533 36.0054298,10.525739 L41.2008051,14.7096946 C41.8296113,15.1877167 42.0823203,16.0125803 41.8258542,16.7599126 C41.5702646,17.503021 40.8687337,18 40.0822472,18 L36,18 L36,33.4085556 C36,35.9410341 33.9227102,37.9951111 31.3729213,37.9951111 L10.5868539,37.9951111 C8.03706504,37.9951111 5.95977528,35.9410341 5.95977528,33.4085556 C5.95977528,32.8562708 6.40749053,32.4085556 6.95977528,32.4085556 C7.51206003,32.4085556 7.95977528,32.8562708 7.95977528,33.4085556 C7.95977528,34.8314024 9.13663485,35.9951111 10.5868539,35.9951111 L31.3729213,35.9951111 C32.8231404,35.9951111 34,34.8314024 34,33.4085556 L34,17 C34,16.4477153 34.4477153,16 35,16 L39.6149353,16 L34.3728227,11.7788765 C34.0797139,11.5428556 33.9439276,11.1622643 34.0214455,10.7940121 C33.9978469,10.9848415 33.9978469,10.9848415 34.0016481,10.9351194 C34.0022526,10.8889323 34.0022526,10.8889323 34.0028422,10.8113755 C34.0036117,10.6972074 34.0042312,10.5271289 34.0046952,10.3016861 C34.005627,9.84891535 34.00593,9.17422352 34.005603,8.27790306 C34.0053662,7.62857259 34.0047987,6.86299617 34.0039008,5.98118921 C34.0030059,5.1024435 34.0017828,4.10828978 34.0002306,2.99750929 L29,2.91374622 L29,6 C29,6.82045884 28.0664385,7.29179667 27.4062541,6.80465263 L20.9985931,2.07637979 Z" id="Path" fill="#333333" fill-rule="nonzero" style="fill: rgb(174, 92, 76);"></path>
                    <path d="M18.6404857,18.8406463 C16.6846655,18.8406463 14.9775474,20.2300266 14.4703626,22.1968322 C14.1218378,23.5486002 14.3336911,25.0686784 15.3255567,26.6329404 C15.6213059,27.0993638 16.239169,27.2377226 16.7055924,26.9419733 C17.1720158,26.646224 17.3103746,26.028361 17.0146253,25.5619376 C16.3259361,24.4758122 16.1933889,23.524767 16.4070174,22.6961999 C16.6911593,21.59433 17.617203,20.8406463 18.6404857,20.8406463 C19.2435721,20.8406463 19.7933831,21.0972966 20.2556061,21.6082448 L20.9970999,22.4279029 L21.7386902,21.6083321 C22.201015,21.0973925 22.7512167,20.8406463 23.3545768,20.8406463 C24.3783675,20.8406463 25.3047484,21.594447 25.5888922,22.6963789 C25.8024056,23.5248024 25.6697103,24.4757367 24.980691,25.5619292 C24.2202276,26.7605925 22.8840182,27.9078541 20.9969479,28.953551 C20.2761619,28.5540145 19.6335691,28.1383296 19.0721673,27.7093121 C18.6333464,27.3739696 18.0057629,27.4578554 17.6704204,27.8966764 C17.3350778,28.3354974 17.4189637,28.9630809 17.8577847,29.2984234 C18.5575497,29.8331767 19.3553555,30.3418771 20.247887,30.8233923 C20.4795116,30.9480506 20.7366548,31.0124648 20.9969586,31.0124648 C21.2572766,31.0124648 21.5143432,30.9480431 21.7450636,30.823872 C24.0176057,29.5982818 25.6781052,28.1960051 26.669526,26.6333006 C27.6618682,25.0689398 27.873977,23.5489053 27.5255721,22.1971083 C27.0183535,20.2300752 25.3108194,18.8406463 23.3545768,18.8406463 C22.49741,18.8406463 21.692439,19.1061561 20.9972738,19.6025738 C20.302276,19.1061476 19.4975324,18.8406463 18.6404857,18.8406463 Z" id="Path" fill="#333333" fill-rule="nonzero" style="fill: rgb(174, 92, 76);"></path>
                    <path d="M28.5389376,13.4042032 C28.9807654,13.7355741 29.6075668,13.646031 29.9389376,13.2042032 C30.2703085,12.7623754 30.1807654,12.1355741 29.7389376,11.8042032 L21.6,5.7 C21.2444444,5.43333333 20.7555556,5.43333333 20.4,5.7 L6.4,16.2 C5.9581722,16.5313708 5.86862915,17.1581722 6.2,17.6 C6.53137085,18.0418278 7.1581722,18.1313708 7.6,17.8 L21,7.75 L28.5389376,13.4042032 Z M31.1578721,15.3684041 L34.4,17.8 C34.8418278,18.1313708 35.4686292,18.0418278 35.8,17.6 C36.1313708,17.1581722 36.0418278,16.5313708 35.6,16.2 L32.3578721,13.7684041 C31.9160443,13.4370332 31.289243,13.5265763 30.9578721,13.9684041 C30.6265013,14.4102319 30.7160443,15.0370332 31.1578721,15.3684041 Z" id="Path-2" fill="#333333" fill-rule="nonzero" style="fill: rgb(174, 92, 76);"></path>
                    <polygon id="Path-4" fill="#333333" fill-rule="nonzero" points="27.4187618 6.81373347 34.4187618 11.8137335 35.5812382 10.1862665 28.5812382 5.18626653" style="fill: rgb(174, 92, 76);"></polygon>
            </g>
        </g>
    </g>
</svg>