<svg xmlns="http://www.w3.org/2000/svg" width="40px" height="35px" viewBox="0 0 40 35" version="1.1">n        <g id="Artboard" transform="translate(-427.000000, -136.000000)" fill="#333333" style="fill: rgb(11, 105, 246);">n            <g id="首页_pressed" transform="translate(425.000000, 133.000000)">n                <path d="M10.0060967,35.4843575 L10.0060967,11.5278358 C10.0060967,10.6874025 10.6874025,10.0060967 11.5278358,10.0060967 L35.4843575,10.0060967 C36.0366423,10.0060967 36.4843575,9.5583814 36.4843575,9.00609665 C36.4843575,8.4538119 36.0366423,8.00609665 35.4843575,8.00609665 L11.5278358,8.00609665 C9.58283297,8.00609665 8.00609665,9.58283297 8.00609665,11.5278358 L8.00609665,35.4843575 C8.00609665,36.0366423 8.4538119,36.4843575 9.00609665,36.4843575 C9.5583814,36.4843575 10.0060967,36.0366423 10.0060967,35.4843575 Z" id="Rectangle-14" fill-rule="nonzero" transform="translate(22.245227, 22.245227) rotate(45.000000) translate(-22.245227, -22.245227) "></path>n                <path d="M35,21 L35,33 C35,34.6568542 33.6568542,36 32,36 L13,36 C11.3431458,36 10,34.6568542 10,33 L10,21 L8,21 L8,24 L10,24 L10,21 L8,21 L8,33 C8,35.7614237 10.2385763,38 13,38 L32,38 C34.7614237,38 37,35.7614237 37,33 L37,21 L35,21 Z" id="Rectangle-23" fill-rule="nonzero"></path>n                <rect id="Rectangle-25" x="19" y="26" width="7" height="11"></rect>n        </g>n    </g>n</svg>