<?xml version="1.0" encoding="UTF-8"?>
<svg width="33px" height="64px" viewBox="0 0 33 64" version="1.1" xmlns="http://www.w3.org/2000/svg" xmlns:xlink="http://www.w3.org/1999/xlink">
    <!-- Generator: Sketch 47.1 (45422) - http://www.bohemiancoding.com/sketch -->
    <title>Group 2</title>
    <desc>Created with Sketch.</desc>
    <defs></defs>
    <g id="Page-1" stroke="none" stroke-width="1" fill="none" fill-rule="evenodd">
        <g id="20733-NSXB8Y" transform="translate(-167.000000, -432.000000)">
            <g id="Group-2" transform="translate(167.000000, 432.000000)">
                <path d="M18.277,62.104 C18.277,63.097 17.472,63.902 16.479,63.902 C15.486,63.902 14.681,63.097 14.681,62.104 L14.681,17.242 C14.681,16.249 15.486,15.444 16.479,15.444 C17.472,15.444 18.277,16.249 18.277,17.242 L18.277,62.104" id="Fill-485" fill="#B6B8B3"></path>
                <path d="M32.483,16.803 C32.483,25.642 25.318,32.807 16.479,32.807 C7.64,32.807 0.475,25.642 0.475,16.803 C0.475,7.964 7.64,0.798 16.479,0.798 C25.318,0.798 32.483,7.964 32.483,16.803" id="Fill-486" fill="#E15B74"></path>
            </g>
        </g>
    </g>
</svg>